<svg xmlns="http://www.w3.org/2000/svg" width="5.93" height="10.778" viewBox="0 0 5.93 10.778"><defs><style>.a{fill:#585858;}</style></defs><g transform="translate(-259.814 -55.919)"><path class="a" d="M260.354,61.847a.538.538,0,0,1-.382-.92l4.852-4.85a.539.539,0,1,1,.762.762l-4.852,4.85A.535.535,0,0,1,260.354,61.847Zm0,0" transform="translate(0 0)"/><path class="a" d="M265.2,472.352a.539.539,0,0,1-.382-.157l-4.849-4.85a.539.539,0,0,1,.762-.762l4.85,4.85a.538.538,0,0,1-.382.92Zm0,0" transform="translate(0 -405.655)"/></g></svg>