<svg xmlns="http://www.w3.org/2000/svg" width="94" height="85" viewBox="0 0 94 85"><defs><style>.a{fill:#899fc3;}.b{fill:#d3e4ff;stroke:#fff;}.c{fill:#4571b9;font-size:12px;font-family:Poppins-Regular, Poppins;}.d{stroke:none;}.e{fill:none;}</style></defs><g transform="translate(-1019 -569)"><path class="a" d="M104.5,63.9a40,40,0,1,0,40,40A40,40,0,0,0,104.5,63.9Zm12.238,51.6a2.833,2.833,0,0,1-3.874,1.035l-12.685-7.32a2.842,2.842,0,0,1-1.419-2.464V89.6a2.839,2.839,0,0,1,5.677,0v15.514l11.265,6.507a2.831,2.831,0,0,1,1.035,3.874Z" transform="translate(954.5 510.1)"/><g transform="translate(612 319)"><g class="b" transform="translate(467 250)"><circle class="d" cx="17" cy="17" r="17"/><circle class="e" cx="17" cy="17" r="16.5"/></g><text class="c" transform="translate(472 270)"><tspan x="0" y="0">poc</tspan></text></g></g></svg>