<svg xmlns="http://www.w3.org/2000/svg" width="96" height="86" viewBox="0 0 96 86"><defs><style>.a,.d{fill:#4571b9;}.b{fill:#fff;}.c{fill:#d3e4ff;stroke:#fff;}.d{font-size:12px;font-family:Poppins-Regular, Poppins;}.e{stroke:none;}.f{fill:none;}</style></defs><g transform="translate(-405 -250)"><circle class="a" cx="40" cy="40" r="40" transform="translate(405 256)"/><path class="b" d="M109.074,67.507c-.1,0-.2,0-.3.006h0a18.505,18.505,0,0,0-3.9-1.976l-.011,0a10.624,10.624,0,1,0-12.462.072l0,0C80.156,70,80.156,83.24,80.156,83.24h2.633s1.366-15.811,15.8-15.811a15.69,15.69,0,0,1,6.359,1.242,7.9,7.9,0,1,0,4.126-1.163ZM98.589,64.973a8,8,0,1,1,7.992-8A8,8,0,0,1,98.589,64.973Zm9.052,15.6a14.443,14.443,0,0,0-5.382-3.842l3.486-1.827,1.686,2.834s2.745-5.761,7.075-7.685c-.106,1.374-.531,2.563.212,4.024C112.815,74.439,108.907,78.555,107.641,80.568Z" transform="translate(346.436 231.171)"/><g class="c" transform="translate(467 250)"><circle class="e" cx="17" cy="17" r="17"/><circle class="f" cx="17" cy="17" r="16.5"/></g><text class="d" transform="translate(472 270)"><tspan x="0" y="0">poc</tspan></text></g></svg>