<svg xmlns="http://www.w3.org/2000/svg" width="118.437" height="24.447" viewBox="0 0 118.437 24.447"><defs><style>.a{fill:#4d4d4d;}</style></defs><g transform="translate(-1031 -1026)"><g transform="translate(1031 1026)"><g transform="translate(15.017 0)"><path class="a" d="M180.034,1041.373a6.567,6.567,0,0,1,9.156,2.04l4.9-2.829a12.28,12.28,0,0,0-4.618-4.431A15.74,15.74,0,0,0,180.034,1041.373Z" transform="translate(-171.101 -1034.657)"/><path class="a" d="M138.861,1071.268a.2.2,0,0,1,.245-.254,7.811,7.811,0,0,0,4.58-.215,6.644,6.644,0,0,0,.968-.453c-.385-.257-1.842-.782-6.993,0-.231.034-.8.112-1.278.13a6.32,6.32,0,0,1,1.642,3.3A2.89,2.89,0,0,0,138.861,1071.268Z" transform="translate(-136.383 -1061.526)"/><path class="a" d="M141.033,1037.259a24.537,24.537,0,0,1,5.687-.37,16.839,16.839,0,0,1,5.668-5.35,16.656,16.656,0,0,1,4.563-1.789A12.228,12.228,0,0,0,140.7,1037.3C140.812,1037.291,140.925,1037.276,141.033,1037.259Z" transform="translate(-139.816 -1028.845)"/><path class="a" d="M224.5,1106.08a1.983,1.983,0,0,0-.809-1.314c-.061-.04-.122-.078-.183-.116a1.068,1.068,0,0,0-.723-.142q-.145.023-.3.052l.006,0c-.071.011-.141.025-.211.038-.188.041-.387.089-.6.146a5.837,5.837,0,0,0-1.766.879,2.454,2.454,0,0,0-.8.839.745.745,0,0,0-.052.3,2.047,2.047,0,0,0,.107.519,2.11,2.11,0,0,1,.042,1.337,3.563,3.563,0,0,1-.3.707,1.025,1.025,0,0,0-.049,1.164c.086.17.169.319.243.451a2.31,2.31,0,0,1,.413,1.436.2.2,0,0,0,.138.069h.016a.2.2,0,0,0,.2-.189,2.088,2.088,0,0,0-.42-1.394c-.075-.124-.16-.265-.246-.424a.88.88,0,0,1,.05-1.071,3.274,3.274,0,0,0,.3-.669,1.871,1.871,0,0,0-.042-1.272,1.786,1.786,0,0,1-.107-.481.71.71,0,0,1,.135-.426.194.194,0,0,0,.038.016l3.982,1.26a.215.215,0,0,0,.062.009.2.2,0,0,0,.147-.063A2.1,2.1,0,0,0,224.5,1106.08Zm-.923,1.289-3.716-1.176c.1-.083.2-.162.3-.237a5.434,5.434,0,0,1,1.891-.886,6.532,6.532,0,0,1,.859-.15.641.641,0,0,1,.41.1l.142.09a1.588,1.588,0,0,1,.629,1.018A1.646,1.646,0,0,1,223.576,1107.369Z" transform="translate(-201.863 -1089.014)"/><path class="a" d="M143.514,1081.287c.036.005.073.011.109.018a4.045,4.045,0,0,1,1.472.542,8.173,8.173,0,0,1,.74.538c.295.207.572.413.828.591a4.948,4.948,0,0,0,2,.746l0,.006a10.307,10.307,0,0,0,2.754-.087c2.746-.37,4.52-.333,6.039.2.254-.063.493-.116.717-.156-1.72-.778-3.64-.881-6.811-.454a6.875,6.875,0,0,1-4.128-.368,6.8,6.8,0,0,1-1.077-.747,9.258,9.258,0,0,0-.85-.622,4.242,4.242,0,0,0-1.1-.482l-.006,0c-.065-.018-.131-.034-.2-.05l-.073-.017c-.158-.034-.32-.063-.488-.084v-.011a7.287,7.287,0,0,0-4.332.577.2.2,0,0,1-.1.026.2.2,0,0,1-.165-.083.2.2,0,0,1-.035-.091h0a6.918,6.918,0,0,0-.856-2.49,12.229,12.229,0,0,0,16.787,13.277,1.9,1.9,0,0,0-.349-1.37c-.076-.136-.162-.289-.251-.467a2.161,2.161,0,0,1-.139-.344,14.168,14.168,0,0,1-3.557.5,8.019,8.019,0,0,1-4.211-1.078,7.086,7.086,0,0,1-3.129-4.111.2.2,0,0,1,.4-.094,6.8,6.8,0,0,0,2.947,3.857c1.913,1.149,4.431,1.323,7.486.519h0a1.7,1.7,0,0,1,.254-.786,3.209,3.209,0,0,0,.268-.63,1.718,1.718,0,0,0-.04-1.108,2.4,2.4,0,0,1-.124-.621,1.863,1.863,0,0,1,.888-1.408,5.573,5.573,0,0,1,.981-.623c-.049,0-.092.006-.11.009l-.565.059a9.23,9.23,0,0,0-1.257.2,6.986,6.986,0,0,0-1.68.55,17.452,17.452,0,0,1-1.641.777,5.621,5.621,0,0,1-2.453.375,4.53,4.53,0,0,1-.806-.158,6.042,6.042,0,0,1-1.96-.851,4.559,4.559,0,0,1-.809-.736,5.048,5.048,0,0,1-.521-.551,3.622,3.622,0,0,1-.273-.389,4.978,4.978,0,0,0-.928-.873,5.117,5.117,0,0,0-2.7-.811,2.347,2.347,0,0,1,.986,1.62,7.145,7.145,0,0,1,.043,2.224c-.032.375-.065.763-.064,1.133a4.725,4.725,0,0,0,.605,2.6q-.416-.378-.792-.793a6.6,6.6,0,0,1-.224-1.8c0-.388.033-.786.065-1.17a6.845,6.845,0,0,0-.034-2.1c-.123-.532-.435-1.429-1.14-1.449a.965.965,0,0,0-.154.01,1.532,1.532,0,0,0-1.207,1.172.2.2,0,0,1-.033.074q-.08-.362-.137-.732a1.808,1.808,0,0,1,.958-.831,7.454,7.454,0,0,1,4.016-.593" transform="translate(-137.499 -1068.57)"/><path class="a" d="M154.112,1072.026a.144.144,0,0,0,0-.019s0,0,0-.005a7.6,7.6,0,0,1-6.093,1.121,3.33,3.33,0,0,1-.68,2.2,7.991,7.991,0,0,1,4.935,0v0s.088.023.175.05a5.133,5.133,0,0,0,1.664-3.352Z" transform="translate(-145.099 -1063.17)"/></g><g transform="translate(0 6.515)"><path class="a" d="M80.089,1069.38v3.9l-5.924,7.64h5.924v3.9H68.6v-3.9l5.924-7.64H68.6v-3.9Z" transform="translate(-68.09 -1068.869)"/><path class="a" d="M78.613,1083.35H66.1v-4.59l5.391-6.953H66.1v-4.927H78.613v4.59l-5.391,6.953h5.391Zm-11.488-1.023H77.59v-2.88H71.133l6.456-8.327V1067.9H67.125v2.88h6.456l-6.456,8.327Z" transform="translate(-66.102 -1066.88)"/></g><g transform="translate(40.7 2.528)"><path class="a" d="M264.389,1049.9h4.734v15.834h5.9v3.6h-10.63Z" transform="translate(-263.877 -1049.39)"/><path class="a" d="M273.542,1067.857H261.889V1047.4h5.757v15.834h5.9Zm-10.63-1.023h9.607v-2.575h-5.9v-15.834h-3.71Z" transform="translate(-261.889 -1047.401)"/></g><g transform="translate(55.981 2.252)"><path class="a" d="M341.952,1065.628a10.246,10.246,0,0,1,0-14.27,10.307,10.307,0,0,1,14.146,0,10.3,10.3,0,0,1-.014,14.27,10.253,10.253,0,0,1-14.132,0Zm10.8-3.073a6.622,6.622,0,0,0,0-8.139,5.347,5.347,0,0,0-7.474,0,6.622,6.622,0,0,0,0,8.139,5.347,5.347,0,0,0,7.474,0Z" transform="translate(-338.547 -1048.036)"/><path class="a" d="M347.036,1066.975a10.281,10.281,0,0,1-7.43-2.97h0a10.756,10.756,0,0,1,0-15,10.817,10.817,0,0,1,14.86,0,10.81,10.81,0,0,1-.014,15A10.235,10.235,0,0,1,347.036,1066.975Zm.014-19.9a9.331,9.331,0,0,0-6.73,2.665,9.735,9.735,0,0,0,0,13.537h0a9.742,9.742,0,0,0,13.416,0,9.788,9.788,0,0,0,.014-13.539A9.238,9.238,0,0,0,347.05,1047.071Zm-.028,15.53a5.337,5.337,0,0,1-4.114-1.689,7.126,7.126,0,0,1,0-8.83,5.856,5.856,0,0,1,8.228,0,7.126,7.126,0,0,1,0,8.83A5.338,5.338,0,0,1,347.023,1062.6Zm0-11.184a4.3,4.3,0,0,0-3.36,1.357,6.119,6.119,0,0,0,0,7.446,4.838,4.838,0,0,0,6.721,0h0a6.119,6.119,0,0,0,0-7.447A4.3,4.3,0,0,0,347.023,1051.417Z" transform="translate(-336.559 -1046.048)"/></g><g transform="translate(77.304 2.473)"><path class="a" d="M458.444,1069.119l-1.08-3.267h-6.976l-1.08,3.267h-5.038l6.754-19.489h5.758l6.727,19.489Zm-6.865-6.866h4.6l-2.3-6.921Z" transform="translate(-443.552 -1049.119)"/><path class="a" d="M461.434,1067.642H455.28l-1.08-3.266h-6.237l-1.079,3.266h-6.127l7.109-20.511h6.487Zm-5.414-1.023H460l-6.374-18.465H448.6l-6.4,18.465h3.95l1.079-3.267h7.715Zm-1.931-5.842h-6.013l3.007-9.056Zm-4.6-1.023h3.177l-1.589-4.786Z" transform="translate(-440.758 -1047.13)"/></g><g transform="translate(99.485 2.528)"><path class="a" d="M556.38,1069.334h-4.733V1049.9h4.733v8.526l6.423-8.526H569l-8,9.716,8,9.717h-6.09l-6.533-8.582Z" transform="translate(-551.135 -1049.39)"/><path class="a" d="M568.1,1067.857h-7.427l-5.768-7.577v7.577h-5.757V1047.4H554.9v7.508l5.656-7.508h7.54l-8.421,10.228Zm-6.92-1.023h4.753l-7.579-9.2,7.579-9.2H561.07l-6.916,9.181Zm-11.009,0h3.71v-18.409h-3.71Z" transform="translate(-549.147 -1047.401)"/></g><rect class="a" width="14.667" height="5.021" transform="translate(40.7 17.963)"/></g></g></svg>