<svg xmlns="http://www.w3.org/2000/svg" width="96" height="86" viewBox="0 0 96 86"><defs><style>.a{fill:#899fc3;}.b{fill:#fff;}.c{fill:#d3e4ff;stroke:#fff;}.d{fill:#4571b9;font-size:12px;font-family:Poppins-Regular, Poppins;}.e{stroke:none;}.f{fill:none;}</style></defs><g transform="translate(-405 -569)"><circle class="a" cx="40" cy="40" r="40" transform="translate(405 575)"/><g transform="translate(431.981 586.855)"><path class="b" d="M415.44,295.481c-2.91-1.424-5.433-2.655-5.433-5.512,0-2.523,1.714-4.158,4.369-4.158,2.409,0,3.736.862,5.468,2.549l.308.3,2.628-2.892-.264-.281a10.873,10.873,0,0,0-6.575-3.639V277.1h-3.631v4.844a8.012,8.012,0,0,0-6.9,8.184c0,5.081,3.877,7.05,7.305,8.791,3.059,1.556,5.951,3.024,5.951,6.452,0,2.875-1.749,4.448-4.914,4.448a10.771,10.771,0,0,1-7.015-2.989l-.352-.3-2.286,3.305.264.246a15.223,15.223,0,0,0,7.947,3.7v4.747h3.631v-4.844a8.306,8.306,0,0,0,7.323-8.571C423.255,299.3,419.106,297.275,415.44,295.481Z" transform="translate(-400.663 -269.67)"/></g><g transform="translate(0 319)"><g class="c" transform="translate(467 250)"><circle class="e" cx="17" cy="17" r="17"/><circle class="f" cx="17" cy="17" r="16.5"/></g><text class="d" transform="translate(472 270)"><tspan x="0" y="0">poc</tspan></text></g></g></svg>