<svg xmlns="http://www.w3.org/2000/svg" width="112.764" height="129.293" viewBox="0 0 112.764 129.293"><defs><style>.a{fill:#4571b9;}</style></defs><path class="a" d="M255.689,107.754c-25.607,0-51.034-14.556-51.3-14.735a3.661,3.661,0,0,0-1.617-.449,3.363,3.363,0,0,0-1.617.449c-.27.18-26.326,14.735-51.663,14.735a3.376,3.376,0,0,0-3.324,3.324v46.362c0,20.575,9.7,38.276,28.033,51.124a91,91,0,0,0,27.673,13.208,3.683,3.683,0,0,0,1.617,0,94.23,94.23,0,0,0,27.584-13.387c18.239-12.938,27.853-30.549,27.853-51.034V111.079a3.241,3.241,0,0,0-3.235-3.324Zm-20.575,37.826L201.6,179.094a4.56,4.56,0,0,1-3.235,1.348,4.271,4.271,0,0,1-3.235-1.348l-20.755-20.755a4.478,4.478,0,0,1,.09-6.469,4.555,4.555,0,0,1,6.469,0l17.521,17.521,30.189-30.279a4.478,4.478,0,0,1,6.469.09A4.613,4.613,0,0,1,235.114,145.581Z" transform="translate(-146.164 -92.57)"/></svg>